PathFileType	4	(X/Y/Z)	Patient4_TMGait_0pt2_01_right_02.trc.trc
DataRate	CameraRate	NumFrames	NumMarkers	Units	OrigDataRate	OrigDataStartFrame	OrigNumFrames
43.750000000000	43.750000000000	4	33	mm	43.750000000000	71	       141
Frame#	Time	Sacral			L.Shoulder			Chest			R.Shoulder			Neck			R.ASIS			L.ASIS			R.Thigh.Superior			R.Thigh.Lateral			R.Thigh.Inferior			R.Patella			L.Thigh.Superior			L.Thigh.Lateral			L.Thigh.Inferior			L.Patella			L.Shank.Superior			L.Shank.Lateral			L.Shank.Inferior			R.Shank.Superior			R.Shank.Lateral			R.Shank.Inferior			R.Heel			R.Midfoot.Superior			R.Midfoot.Lateral			R.Toe			L.Heel			L.Midfoot.Lateral			L.Midfoot.Superior			L.Toe			L.Elbow			L.Wrist			R.Elbow			R.Wrist			
		X1	Y1	Z1	X2	Y2	Z2	X3	Y3	Z3	X4	Y4	Z4	X5	Y5	Z5	X6	Y6	Z6	X7	Y7	Z7	X8	Y8	Z8	X9	Y9	Z9	X10	Y10	Z10	X11	Y11	Z11	X12	Y12	Z12	X13	Y13	Z13	X14	Y14	Z14	X15	Y15	Z15	X16	Y16	Z16	X17	Y17	Z17	X18	Y18	Z18	X19	Y19	Z19	X20	Y20	Z20	X21	Y21	Z21	X22	Y22	Z22	X23	Y23	Z23	X24	Y24	Z24	X25	Y25	Z25	X26	Y26	Z26	X27	Y27	Z27	X28	Y28	Z28	X29	Y29	Z29	X30	Y30	Z30	X31	Y31	Z31	X32	Y32	Z32	X33	Y33	Z33	

71	3.860000000000	898.578372990256	1005.299962102180	601.718904541626	1018.196827969579	1429.152246639903	375.747969395555	1163.847190623236	1361.573837189452	500.791145129949	1135.939136457285	1439.463505071291	689.139678647475	1050.685302497788	1492.920856613351	528.033022164696	1146.959658267499	935.071763721609	658.127260358003	1068.668689943937	962.750988511883	394.364740304832	1156.514987665581	728.583487975348	618.333368398148	1076.765407848808	621.966585025588	690.034499789475	1129.727608106859	567.446036894913	596.256996803077	1119.150685493049	478.837349661383	601.231568694119	1140.894931380651	765.781095500591	411.134974852040	1068.495676219731	641.911205091667	344.092964790211	1170.921974963598	576.948122122631	394.135751881046	1187.221779827619	512.705631639263	391.569937460444	1172.249987764923	441.296814987223	377.757295567876	1102.830113691202	314.358714579880	321.436858875861	1189.775957246970	210.623420519252	369.940341198340	1081.626219456946	392.702846630185	609.923855752439	1005.324350729197	294.445463073266	674.852355162845	1027.221535065580	199.344992061527	605.239791249988	874.345982238552	43.478425952683	580.476465547790	1047.177712476205	96.240053456189	609.812679733792	959.824244728308	37.129213909608	652.624387638951	1167.701974822109	43.537160650394	634.993633287644	1099.206367354214	36.125548554129	400.747433411328	1174.002324201883	38.667489117983	321.310414307113	1249.595239307868	110.865333886561	345.250215725174	1381.579298880942	73.813006181069	318.950749319371	880.006442851906	1097.859851563932	315.335684655188	842.379794783361	842.940928113045	364.107468514854	1327.276537803972	1158.160342515575	788.577058945153	1552.976516678422	1236.089487161739	699.935692787354	
72	3.882857142857	898.882191679324	1004.785035330244	598.236151238605	1018.944421414311	1428.186811747441	371.436153657021	1164.317755985219	1360.729848832276	496.899809679940	1136.021174482965	1438.961307615026	684.965633768303	1051.016854770778	1492.262467860454	523.696731360827	1147.165598110166	934.602427420489	655.337246850796	1069.211184249877	961.634839614246	391.445748414902	1156.062593000719	727.824687373692	615.963577831890	1075.746132654221	621.550311566741	687.855619060015	1128.430884106219	566.586269836425	594.333335497107	1117.269231471450	477.925706394250	599.497780820678	1140.200402843753	763.392102270373	407.564148409820	1065.067023670040	639.881839543139	342.210472772373	1167.431129112418	574.695645401788	391.566227440280	1181.954302576202	510.794236040401	389.919841749512	1168.454259596822	439.625987254185	376.048647575884	1100.115999154178	312.161145555862	320.410832204617	1187.840800243692	209.480571202792	369.306588261531	1079.193849032920	392.017086713120	608.459214095188	1002.273693670202	294.482102374761	673.893327711771	1023.523341472478	199.025676242353	604.637767428090	869.759147754177	43.509563657925	580.488885788850	1042.627301723953	96.230436696568	609.693471040388	955.223398783279	37.134307304202	652.602067463566	1163.112228917508	43.479385573302	635.024687260032	1098.063033945563	36.132806010057	400.998985212530	1172.526529496573	38.258033072944	321.241311623641	1248.530809422480	109.601860216305	345.109629781935	1379.960950533435	71.522420261725	318.437658823176	882.671553517935	1096.102382541188	310.586194717671	844.909606375813	841.074670573075	358.605667153396	1329.697005801682	1159.076570710110	782.378613692775	1553.126469117946	1240.908299727786	691.868679394617	
73	3.905714285714	899.390398602902	1004.291054068969	594.306098123794	1019.805883642236	1427.237266296554	366.748458289162	1164.846830760173	1360.053765278198	492.775683046547	1135.915101428863	1438.622206110085	680.531402283637	1051.272486912072	1491.672370441762	518.988465902031	1147.571947974828	934.226220260482	652.364544860138	1070.223192452276	960.631719826391	388.294849236663	1155.757507159761	727.059125199160	613.442904055238	1074.745128657428	621.181481957408	685.492115552395	1127.136045979124	565.735069680376	592.258905702874	1115.343493144222	477.051634275378	597.604323453604	1140.344289316948	761.427779042967	404.265989667339	1063.137676234243	638.217754427411	340.217967905084	1165.239280499154	572.798046128951	389.278040769135	1178.050875324331	508.966524382151	388.346673819131	1165.523372641208	437.936715910501	374.430458210421	1097.464366748654	310.433989904273	319.450179559205	1185.165268170562	208.253671715331	368.839743422436	1076.707893198985	391.374751786650	606.878351970296	999.173686340544	294.591419640337	672.867278687273	1019.803601463201	198.753617014117	603.995854243242	865.173917074195	43.550715085032	580.493798563806	1038.111260693353	96.260863962563	609.600200608569	950.624563036985	37.141533119936	652.568368477649	1158.519738135540	43.435506118151	635.054373632637	1094.995038172571	36.481299640239	401.496086269642	1169.054319140554	37.963656565290	321.313495677422	1245.861397446158	108.114126536515	345.094917770677	1376.578098006528	68.468748416338	317.833704293016	885.634533050899	1094.363296033653	305.036817699973	848.066532535833	839.144662010870	351.974920673835	1331.489621741150	1159.975196933342	776.455593352184	1552.987553149790	1244.896442651076	684.315916087860	
74	3.928571428571	900.058519672194	1003.903804137411	589.972008069893	1020.765272148613	1426.374475344552	361.761239795840	1165.451610290097	1359.580596370048	488.439612915323	1135.717647141845	1438.488102207650	675.867993302848	1051.491199637998	1491.199093353923	513.978937840229	1148.125566695003	933.953595160486	649.198194315239	1071.623033081226	959.833955286988	384.911360539953	1155.466039906007	726.300407655278	610.780859976567	1073.617148052224	620.906840971081	682.973598980384	1125.693642047362	564.918748042486	590.070188061142	1113.222632562814	476.265552967500	595.600441600265	1141.243436604553	759.984846215498	401.234951176679	1062.670652009544	636.996580998881	338.040501705927	1164.306770150088	571.320742417568	387.205136471689	1175.568897988201	507.348982157265	386.818336012577	1163.564314453585	436.346696321266	372.887562536975	1095.187652852212	309.153783184725	318.420846890316	1182.162665935171	206.995128254826	368.486958189921	1074.056782366766	390.825788478190	605.224024796935	995.933113626862	294.799898197729	671.800742079022	1016.010414359623	198.557118334712	603.333960151576	860.592291957441	43.611017502862	580.486332244585	1033.625279847798	96.328304212107	609.534238236992	946.029196217570	37.156436695041	652.520022277984	1153.925642428006	43.400056448229	635.081918159720	1090.637084572741	36.981148039318	402.061076035328	1164.308514064516	37.700529829293	321.435558398629	1242.140266046517	106.510129613520	345.173055761590	1372.110465781158	65.031971341364	317.272277818974	888.812309349522	1092.759371394059	298.786261882063	851.781236612961	837.267255298786	344.326726723881	1332.810619290471	1160.949350534933	770.835149843927	1552.714112380338	1248.227071456707	677.266670945038	
